# xmcd
#
# Track frame offsets:
#	150
#	16377
#	35858
#	52454
#	64741
#	75130
#	90076
#	103357
#	116656
#	130508
#	143661
#	161973
#	180248
#	192314
#	206019
#
# Disc length: 2896 seconds
#
# Revision: 1
# Processed by: cddbd v1.5.1PL0 Copyright (c) Steve Scherf et al.
# Submitted via: audiograbber 1.83.01
#
DISCID=cc0b4e0f
DTITLE=Eliza - Speakin' Easy
DYEAR=1998
DGENRE=Country
TTITLE0=Splish Splash (with Bo Schronce)
TTITLE1=Green Door
TTITLE2=Nightlife
TTITLE3=Sweet Charlie Babe
TTITLE4=When You Wish Upon A Star
TTITLE5=What Now My Love (with Bo Schronce)
TTITLE6=I've Been Loving You Too Long
TTITLE7=Dream Lover (with Ruby Andrews)
TTITLE8=Broken Hearted Melody
TTITLE9=Sweet Dreams
TTITLE10=I Got A Feeling
TTITLE11=House Of Love
TTITLE12=That's Life
TTITLE13=Best Thing That Ever Happened
TTITLE14=Walking After Midnight
EXTD=
EXTT0=
EXTT1=
EXTT2=
EXTT3=
EXTT4=
EXTT5=
EXTT6=
EXTT7=
EXTT8=
EXTT9=
EXTT10=
EXTT11=
EXTT12=
EXTT13=
EXTT14=
PLAYORDER=
